<svg xmlns="http://www.w3.org/2000/svg" version="1.0" width="450.000000pt" height="360.000000pt" viewBox="0 0 450.000000 360.000000" preserveAspectRatio="xMidYMid meet">

<g transform="translate(0.000000,360.000000) scale(0.100000,-0.100000)" fill="#2196f3" stroke="none">
<path d="M1620 2734 l-135 -424 -330 -1 c-181 -1 -382 -4 -447 -8 l-116 -6 196 -141 c406 -291 522 -376 522 -381 0 -5 -37 -123 -204 -642 -36 -113 -64 -206 -63 -207 1 -1 61 48 133 110 72 61 211 179 309 261 98 83 242 204 320 270 78 66 232 196 343 289 111 94 202 171 202 173 0 3 -19 -10 -589 -381 -217 -141 -395 -255 -397 -254 -1 2 29 100 67 218 38 118 69 217 69 220 0 3 -46 39 -102 80 -57 40 -150 108 -208 149 l-104 76 258 5 258 5 75 235 c41 129 78 238 82 242 4 4 42 -102 85 -236 l79 -244 36 5 c20 2 270 26 556 53 286 26 702 66 925 87 l405 38 -560 7 c-308 4 -715 8 -905 10 l-345 3 -135 402 c-74 221 -137 404 -140 406 -3 3 -66 -186 -140 -419z" fill="#2196f3"/>
<path d="M2147 1762 c-31 -32 -57 -63 -57 -69 0 -6 21 -75 46 -153 25 -78 43 -144 40 -147 -5 -5 -86 26 -273 104 -18 7 -33 12 -33 10 0 -2 110 -106 245 -231 148 -137 250 -224 257 -220 6 4 8 3 5 -3 -4 -6 23 -38 58 -73 36 -34 65 -59 65 -55 0 4 -63 205 -140 446 -77 241 -140 441 -140 444 0 15 -21 -1 -73 -53z" fill="#2196f3"/>
</g>
</svg>